<?xml version="1.0" standalone="no"?>
<!DOCTYPE svg PUBLIC "-//W3C//DTD SVG 20010904//EN"
 "http://www.w3.org/TR/2001/REC-SVG-20010904/DTD/svg10.dtd">
<svg version="1.0" xmlns="http://www.w3.org/2000/svg"
 width="512.000000pt" height="512.000000pt" viewBox="0 0 512.000000 512.000000"
 preserveAspectRatio="xMidYMid meet">
<metadata>
Created by potrace 1.14, written by Peter Selinger 2001-2017
</metadata>
<g transform="translate(0.000000,512.000000) scale(0.100000,-0.100000)"
fill="#000000" stroke="none">
<path d="M1909 4806 c-2 -2 -29 -7 -59 -10 -61 -7 -93 -12 -160 -27 -25 -6
-54 -12 -65 -15 -49 -10 -168 -48 -250 -81 -423 -169 -782 -464 -1038 -853
-82 -126 -184 -331 -225 -455 -87 -261 -106 -372 -106 -625 0 -264 33 -437
122 -640 l38 -85 -19 -60 c-74 -242 71 -505 319 -578 65 -19 213 -16 272 6 42
16 43 16 120 -17 197 -87 392 -128 607 -130 l80 -1 32 -46 c36 -52 103 -113
148 -134 50 -24 116 -45 140 -45 17 0 36 -17 69 -64 152 -214 424 -428 656
-516 30 -11 64 -25 75 -30 23 -10 144 -45 190 -54 139 -28 168 -31 330 -30
150 0 223 5 291 19 100 21 227 57 269 75 11 5 48 16 83 25 752 188 1174 992
957 1821 -56 215 -168 443 -297 607 -17 21 -29 40 -27 41 2 2 38 27 80 55 78
52 219 184 274 255 17 22 37 47 46 57 9 9 18 20 20 25 2 5 30 48 61 95 59 89
164 288 170 324 2 17 -19 31 -128 86 -231 116 -449 176 -671 186 -87 4 -133
10 -134 17 -8 160 -10 177 -25 285 -10 74 -52 237 -91 354 -28 81 -41 107 -54
107 -22 0 -192 -58 -278 -94 -87 -37 -220 -108 -290 -154 l-57 -39 -28 39
c-35 48 -117 115 -172 139 -103 46 -237 54 -336 20 l-53 -18 -47 23 c-80 41
-245 95 -328 109 -19 3 -43 8 -54 11 -10 4 -33 8 -50 10 -42 6 -402 14 -407
10z"/>
</g>
</svg>
